<?xml version="1.0" encoding="UTF-8" standalone="no"?>
<!-- Created with Inkscape (http://www.inkscape.org/) -->

<svg
   xmlns:dc="http://purl.org/dc/elements/1.1/"
   xmlns:cc="http://creativecommons.org/ns#"
   xmlns:rdf="http://www.w3.org/1999/02/22-rdf-syntax-ns#"
   xmlns:svg="http://www.w3.org/2000/svg"
   xmlns="http://www.w3.org/2000/svg"
   xmlns:sodipodi="http://sodipodi.sourceforge.net/DTD/sodipodi-0.dtd"
   xmlns:inkscape="http://www.inkscape.org/namespaces/inkscape"
   width="400"
   height="400"
   id="svg4611"
   sodipodi:version="0.32"
   inkscape:version="0.92.4 (5da689c313, 2019-01-14)"
   version="1.0"
   sodipodi:docname="Greek_lc_omicron.svg">
  <defs
     id="defs4613" />
  <sodipodi:namedview
     id="base"
     pagecolor="#ffffff"
     bordercolor="#666666"
     borderopacity="1.0"
     gridtolerance="10000"
     guidetolerance="10"
     objecttolerance="1.6"
     inkscape:pageopacity="0.0"
     inkscape:pageshadow="2"
     inkscape:zoom="0.7"
     inkscape:cx="85.90919"
     inkscape:cy="190.61883"
     inkscape:document-units="px"
     inkscape:current-layer="layer1"
     inkscape:object-bbox="true"
     inkscape:object-points="true"
     inkscape:object-nodes="true"
     inkscape:grid-points="true"
     inkscape:window-width="1920"
     inkscape:window-height="1017"
     inkscape:window-x="-8"
     inkscape:window-y="-8"
     width="400px"
     height="400px"
     showgrid="false"
     inkscape:window-maximized="1" />
  <metadata
     id="metadata4616">
    <rdf:RDF>
      <cc:Work
         rdf:about="">
        <dc:format>image/svg+xml</dc:format>
        <dc:type
           rdf:resource="http://purl.org/dc/dcmitype/StillImage" />
      </cc:Work>
    </rdf:RDF>
  </metadata>
  <g
     inkscape:label="Layer 1"
     inkscape:groupmode="layer"
     id="layer1"
     transform="translate(-256.6798,-531.7963)">
    <g
       aria-label="ο"
       style="font-style:normal;font-weight:normal;line-height:0%;font-family:'Times New Roman';text-align:start;text-anchor:start;fill:#000000;fill-opacity:1;stroke:none;stroke-width:1px;stroke-linecap:butt;stroke-linejoin:miter;stroke-opacity:1"
       id="text5540">
      <path
         d="m 450.96552,656.18799 q 40.625,0 65.23437,30.85937 20.89844,26.36719 20.89844,60.54688 0,24.02344 -11.52344,48.63281 -11.52344,24.60938 -31.83594,37.10938 -20.11718,12.5 -44.92187,12.5 -40.42969,0 -64.25781,-32.22657 -20.11719,-27.14843 -20.11719,-60.9375 0,-24.60937 12.10937,-48.82812 12.30469,-24.41406 32.22657,-35.9375 19.92187,-11.71875 42.1875,-11.71875 z m -6.05469,12.69531 q -10.35156,0 -20.89844,6.25 -10.35156,6.05469 -16.79687,21.48438 -6.44532,15.42968 -6.44532,39.64843 0,39.0625 15.42969,67.38282 15.625,28.32031 41.01563,28.32031 18.94531,0 31.25,-15.625 12.30468,-15.625 12.30468,-53.71094 0,-47.65625 -20.50781,-75 -13.86719,-18.75 -35.35156,-18.75 z"
         style="font-size:400px;line-height:1.25;text-align:center;text-anchor:middle"
         id="path814" />
    </g>
  </g>
</svg>
